<svg id="Layer_1" data-name="Layer 1" xmlns="http://www.w3.org/2000/svg" viewBox="0 0 580 204"><defs><style>.cls-1{fill:#fff;}.cls-2{fill:#dc4326;}</style></defs><title>kanopy-devices</title><rect class="cls-1" x="108.38" y="5.63" width="303.74" height="176.63"/><path class="cls-2" d="M261.47.56C309.73.56,358,.78,406.25.38c9.74-.08,13.17,2.84,13.1,12.83-.39,54.34-.36,101.69,0,156,.06,9.85-3.52,13.18-13.19,13.16q-144.78-.32-289.57,0c-9.89,0-13-3.66-13-13.31.32-54.34.38-101.69,0-156C103.46,2.89,107.1.32,116.68.39,164.94.76,213.2.56,261.47.56ZM412.19,7.65H111V175.36H412.19Z"/><path class="cls-2" d="M317.38,196.3c-.46-2.53-.92-2.12-1.48-5.19H207.41c-.91,2.67-1.89,2.58-2.86,5.41l-2.57-.16c0-3.71-1-5,.38-8,.89-1.91,5.47-2.92,8.41-2.94q50.67-.3,101.34,0c3,0,7.22,1.76,8.62,4.07s.34,3.62.34,7Z"/><rect class="cls-2" x="258.97" y="178.38" width="5.85" height="8.2"/><rect class="cls-1" x="52.45" y="79.9" width="93.12" height="135.33" transform="translate(-48.55 246.58) rotate(-90)"/><path class="cls-2" d="M128.34,94.69c11.58,0,23.16.24,34.73-.09,7-.2,9.89,2.79,9.69,10.14-.28,10.38-.24,75.24,0,85.62.15,6.67-2.37,10.12-8.87,10.12-24.17,0-106.83,0-131,0-5.91,0-8.75-3.08-8.74-9.24,0-11.1,0-76.67,0-87.77,0-6.19,2.92-8.94,8.94-8.83C45.35,94.85,116.08,94.69,128.34,94.69Zm37.79,6.8H31v92.07H166.13Z"/><rect class="cls-1" x="374.17" y="78.14" width="178.07" height="111.13"/><path class="cls-2" d="M463.84,194.68c-27.55,0-55.1-.22-82.64.14-7.53.1-10.26-2.26-10.2-9.91q.42-50.44,0-100.9c-.07-8,2.83-10.62,10.73-10.58q82.2.34,164.4,0c7.83,0,10.75,2.6,10.67,10.64-.33,33.34-.41,66.69,0,100,.12,8.76-3.15,10.83-11.21,10.72C518.36,194.45,491.1,194.68,463.84,194.68Zm-87.25-116V189.27H550.8V78.65Z"/><path class="cls-2" d="M537.88,203.93q-91.29.1-182.57-.06c-2.83,0-5.66-1.55-8.49-2.38l.61-2.43h231.4c.25.88.5,1.76.74,2.64-2.94.76-5.87,2.18-8.81,2.18l-32.88.05"/><rect class="cls-1" x="4.72" y="136.55" width="34.18" height="59.06"/><path class="cls-2" d="M41.13,166.53c0,8.85-.2,17.7.07,26.54.16,5.37-2.22,7.55-8.07,7.4-8.26-.21-16.53-.18-24.79,0C3,200.58.27,198.65.28,193.69q0-27.7,0-55.42c0-4.51,2.46-6.69,7.36-6.68,8.83,0,17.67,0,26.5,0,4.94,0,7.12,2.23,7,6.83C41,147.8,41.12,157.16,41.13,166.53Zm-5.41,28.88V136.82H5.79v58.59Z"/></svg>